<svg xmlns="http://www.w3.org/2000/svg" width="62" height="62" viewBox="0 0 62 62" fill="none"><g clip-path="url(#clip0_1060_1027)"><path d="M22.3677 27.7374C22.3677 28.2242 22.4203 28.6189 22.5124 28.9084C22.6177 29.1979 22.7492 29.5137 22.9334 29.8558C22.9992 29.9611 23.0255 30.0663 23.0255 30.1584C23.0255 30.29 22.9466 30.4216 22.7755 30.5532L21.9466 31.1058C21.8282 31.1847 21.7098 31.2242 21.6045 31.2242C21.4729 31.2242 21.3413 31.1584 21.2098 31.04C21.0255 30.8426 20.8677 30.6321 20.7361 30.4216C20.6045 30.1979 20.4729 29.9479 20.3282 29.6453C19.3019 30.8558 18.0124 31.4611 16.4598 31.4611C15.3545 31.4611 14.4729 31.1453 13.8282 30.5137C13.1834 29.8821 12.8545 29.04 12.8545 27.9874C12.8545 26.8689 13.2492 25.9611 14.0519 25.2768C14.8545 24.5926 15.9203 24.2505 17.2755 24.2505C17.7229 24.2505 18.1834 24.29 18.6703 24.3558C19.1571 24.4216 19.6571 24.5268 20.1834 24.6453V23.6847C20.1834 22.6847 19.9729 21.9874 19.565 21.5795C19.144 21.1716 18.4334 20.9742 17.4203 20.9742C16.9598 20.9742 16.4861 21.0268 15.9992 21.1453C15.5124 21.2637 15.0387 21.4084 14.5782 21.5926C14.3677 21.6847 14.2098 21.7374 14.1177 21.7637C14.0255 21.79 13.9598 21.8032 13.9071 21.8032C13.7229 21.8032 13.6308 21.6716 13.6308 21.3953V20.7505C13.6308 20.54 13.6571 20.3821 13.7229 20.29C13.7887 20.1979 13.9071 20.1058 14.0913 20.0137C14.5519 19.7768 15.1045 19.5795 15.7492 19.4216C16.394 19.2505 17.0782 19.1716 17.8019 19.1716C19.3677 19.1716 20.5124 19.5268 21.2492 20.2374C21.9729 20.9479 22.3413 22.0268 22.3413 23.4742V27.7374H22.3677ZM17.0255 29.7374C17.4598 29.7374 17.9071 29.6584 18.3808 29.5005C18.8545 29.3426 19.2755 29.0532 19.6308 28.6584C19.8413 28.4084 19.9992 28.1321 20.0782 27.8163C20.1571 27.5005 20.2098 27.1189 20.2098 26.6716V26.1189C19.8282 26.0268 19.4203 25.9479 18.9992 25.8953C18.5782 25.8426 18.1703 25.8163 17.7624 25.8163C16.8808 25.8163 16.2361 25.9874 15.8019 26.3426C15.3677 26.6979 15.1571 27.1979 15.1571 27.8558C15.1571 28.4742 15.315 28.9347 15.644 29.2505C15.9598 29.5795 16.4203 29.7374 17.0255 29.7374ZM27.5913 31.1584C27.3545 31.1584 27.1966 31.1189 27.0913 31.0268C26.9861 30.9479 26.894 30.7637 26.815 30.5137L23.7229 20.3426C23.644 20.0795 23.6045 19.9084 23.6045 19.8163C23.6045 19.6058 23.7098 19.4874 23.9203 19.4874H25.2098C25.4598 19.4874 25.6308 19.5268 25.7229 19.6189C25.8282 19.6979 25.9071 19.8821 25.9861 20.1321L28.1966 28.8426L30.2492 20.1321C30.315 19.8689 30.394 19.6979 30.4992 19.6189C30.6045 19.54 30.7887 19.4874 31.0255 19.4874H32.0782C32.3282 19.4874 32.4992 19.5268 32.6045 19.6189C32.7098 19.6979 32.8019 19.8821 32.8545 20.1321L34.9334 28.9479L37.2098 20.1321C37.2887 19.8689 37.3808 19.6979 37.4729 19.6189C37.5782 19.54 37.7492 19.4874 37.9861 19.4874H39.2098C39.4203 19.4874 39.5387 19.5926 39.5387 19.8163C39.5387 19.8821 39.5255 19.9479 39.5124 20.0268C39.4992 20.1058 39.4729 20.2111 39.4203 20.3558L36.2492 30.5268C36.1703 30.79 36.0782 30.9611 35.9729 31.04C35.8677 31.1189 35.6966 31.1716 35.4729 31.1716H34.3413C34.0913 31.1716 33.9203 31.1321 33.815 31.04C33.7098 30.9479 33.6177 30.7768 33.565 30.5137L31.5255 22.0268L29.4992 30.5005C29.4334 30.7637 29.3545 30.9347 29.2492 31.0268C29.144 31.1189 28.9598 31.1584 28.7229 31.1584H27.5913ZM44.4992 31.5137C43.815 31.5137 43.1308 31.4347 42.4729 31.2768C41.815 31.1189 41.3019 30.9479 40.9598 30.7505C40.7492 30.6321 40.6045 30.5005 40.5519 30.3821C40.4992 30.2637 40.4729 30.1321 40.4729 30.0137V29.3426C40.4729 29.0663 40.5782 28.9347 40.7755 28.9347C40.8545 28.9347 40.9334 28.9479 41.0124 28.9742C41.0913 29.0005 41.2098 29.0532 41.3413 29.1058C41.7887 29.3032 42.2755 29.4611 42.7887 29.5663C43.315 29.6716 43.8282 29.7242 44.3545 29.7242C45.1834 29.7242 45.8282 29.5795 46.2756 29.29C46.7229 29.0005 46.9598 28.5795 46.9598 28.04C46.9598 27.6716 46.8413 27.3689 46.6045 27.1189C46.3677 26.8689 45.9203 26.6453 45.2755 26.4347L43.3677 25.8426C42.4071 25.54 41.6966 25.0926 41.2624 24.5005C40.8282 23.9216 40.6045 23.2768 40.6045 22.5926C40.6045 22.04 40.7229 21.5532 40.9598 21.1321C41.1966 20.7111 41.5124 20.3426 41.9071 20.0532C42.3019 19.7505 42.7492 19.5268 43.2755 19.3689C43.8019 19.2111 44.3545 19.1453 44.9334 19.1453C45.2229 19.1453 45.5256 19.1584 45.815 19.1979C46.1177 19.2374 46.394 19.29 46.6703 19.3426C46.9334 19.4084 47.1834 19.4742 47.4203 19.5532C47.6571 19.6321 47.8413 19.7111 47.9729 19.79C48.1571 19.8953 48.2887 20.0005 48.3677 20.1189C48.4466 20.2242 48.4861 20.3689 48.4861 20.5532V21.1716C48.4861 21.4479 48.3808 21.5926 48.1834 21.5926C48.0782 21.5926 47.9071 21.54 47.6834 21.4347C46.9334 21.0926 46.0913 20.9216 45.1571 20.9216C44.4071 20.9216 43.815 21.04 43.4071 21.29C42.9992 21.54 42.7887 21.9216 42.7887 22.4611C42.7887 22.8295 42.9203 23.1453 43.1834 23.3953C43.4466 23.6453 43.9334 23.8953 44.6308 24.1189L46.4992 24.7111C47.4466 25.0137 48.1308 25.4347 48.5387 25.9742C48.9466 26.5137 49.144 27.1321 49.144 27.8163C49.144 28.3821 49.0255 28.8953 48.8019 29.3426C48.565 29.79 48.2492 30.1847 47.8413 30.5005C47.4334 30.8295 46.9466 31.0663 46.3808 31.2374C45.7887 31.4216 45.1703 31.5137 44.4992 31.5137Z" fill="#252F3E"></path><path fill-rule="evenodd" clip-rule="evenodd" d="M46.9871 37.9087C42.6581 41.106 36.3687 42.8034 30.9608 42.8034C23.3818 42.8034 16.5529 40.0008 11.395 35.3429C10.9871 34.9745 11.3555 34.4745 11.8424 34.7639C17.4213 38.0008 24.3029 39.9613 31.4213 39.9613C36.2239 39.9613 41.5003 38.9613 46.3555 36.9087C47.0792 36.5797 47.6976 37.3824 46.9871 37.9087Z" fill="#FF9900"></path><path fill-rule="evenodd" clip-rule="evenodd" d="M48.789 35.8563C48.2364 35.1458 45.1311 35.5142 43.7232 35.6853C43.3022 35.7379 43.2364 35.3695 43.618 35.0932C46.0917 33.3563 50.1574 33.8563 50.6311 34.4353C51.1048 35.0274 50.4996 39.0932 48.1838 41.0405C47.8285 41.3432 47.4864 41.1853 47.6443 40.7905C48.1706 39.4879 49.3417 36.5537 48.789 35.8563Z" fill="#FF9900"></path></g><rect x="1" y="1" width="60" height="60" rx="2" stroke="#EAE9F2"></rect><defs><clipPath id="clip0_1060_1027"><rect width="40" height="23.9474" fill="white" transform="translate(11 19)"></rect></clipPath></defs></svg>