<svg xmlns="http://www.w3.org/2000/svg" width="62" height="62" viewBox="0 0 62 62" fill="none"><path d="M50.9816 30.9791C50.9816 41.9877 42.0581 50.9111 31.0494 50.9111C20.0415 50.9111 11.1172 41.9877 11.1172 30.9791C11.1172 19.9712 20.0416 11.0469 31.0494 11.0469C42.0581 11.0469 50.9816 19.9713 50.9816 30.9791Z" fill="#1A1918"></path><path d="M31.3844 23.2233L36.5424 35.954L28.7513 29.8168L31.3844 23.2233V23.2233ZM40.5476 38.8866L32.6134 19.7925C32.3869 19.2418 31.934 18.9504 31.3844 18.9504C30.8337 18.9504 30.3478 19.2418 30.1214 19.7925L21.4131 40.7363H24.392L27.8393 32.1011L38.1266 40.412C38.5403 40.7465 38.8389 40.8978 39.2269 40.8978C40.0041 40.8978 40.6834 40.3152 40.6834 39.4742C40.6834 39.3374 40.6351 39.1201 40.5476 38.8865L40.5476 38.8866Z" fill="white"></path><rect x="1" y="1" width="60" height="60" rx="2" stroke="#EAE9F2"></rect></svg>