<svg xmlns="http://www.w3.org/2000/svg" width="62" height="62" viewBox="0 0 62 62" fill="none"><g clip-path="url(#clip0_1060_910)"><path d="M38.4166 33.1362C36.8603 33.1362 35.465 33.8257 34.5095 34.9113L32.0611 33.178C32.321 32.4624 32.4703 31.694 32.4703 30.8898C32.4703 30.0995 32.3262 29.344 32.0749 28.639L34.5178 26.9241C35.4732 28.0042 36.8648 28.69 38.4166 28.69C41.2892 28.69 43.6266 26.353 43.6266 23.48C43.6266 20.607 41.2892 18.27 38.4166 18.27C35.544 18.27 33.2066 20.607 33.2066 23.48C33.2066 23.9942 33.2843 24.4901 33.4237 24.9597L30.9792 26.6755C29.9581 25.4087 28.4878 24.5241 26.8126 24.2541V21.308C29.1726 20.8123 30.9507 18.7155 30.9507 16.21C30.9507 13.337 28.6133 11 25.7407 11C22.8682 11 20.5307 13.337 20.5307 16.21C20.5307 18.6819 22.2629 20.7529 24.5757 21.2839V24.2684C21.4193 24.8224 19.0112 27.577 19.0112 30.8898C19.0112 34.2188 21.4432 36.9835 24.6223 37.5187V40.67C22.2858 41.1836 20.5307 43.2672 20.5307 45.756C20.5307 48.6289 22.8682 50.966 25.7407 50.966C28.6133 50.966 30.9507 48.6289 30.9507 45.756C30.9507 43.2672 29.1957 41.1836 26.8592 40.67V37.5186C28.4683 37.2475 29.9241 36.4009 30.9554 35.1363L33.4201 36.8808C33.2832 37.3462 33.2066 37.8371 33.2066 38.3462C33.2066 41.2191 35.544 43.5562 38.4166 43.5562C41.2892 43.5562 43.6266 41.2191 43.6266 38.3462C43.6266 35.4732 41.2892 33.1362 38.4166 33.1362ZM38.4166 20.9539C39.8096 20.9539 40.9426 22.0874 40.9426 23.48C40.9426 24.8726 39.8096 26.006 38.4166 26.006C37.0236 26.006 35.8907 24.8726 35.8907 23.48C35.8907 22.0874 37.0236 20.9539 38.4166 20.9539ZM23.2147 16.21C23.2147 14.8174 24.3478 13.684 25.7407 13.684C27.1337 13.684 28.2667 14.8174 28.2667 16.21C28.2667 17.6026 27.1337 18.736 25.7407 18.736C24.3478 18.736 23.2147 17.6026 23.2147 16.21ZM28.2667 45.756C28.2667 47.1486 27.1337 48.2819 25.7407 48.2819C24.3478 48.2819 23.2147 47.1486 23.2147 45.756C23.2147 44.3634 24.3478 43.23 25.7407 43.23C27.1337 43.23 28.2667 44.3634 28.2667 45.756ZM25.7406 34.4127C23.7978 34.4127 22.2173 32.8325 22.2173 30.8898C22.2173 28.947 23.7978 27.3665 25.7406 27.3665C27.6832 27.3665 29.2637 28.947 29.2637 30.8898C29.2637 32.8325 27.6832 34.4127 25.7406 34.4127ZM38.4166 40.8722C37.0236 40.8722 35.8907 39.7388 35.8907 38.3462C35.8907 36.9536 37.0236 35.8202 38.4166 35.8202C39.8096 35.8202 40.9426 36.9536 40.9426 38.3462C40.9426 39.7388 39.8096 40.8722 38.4166 40.8722Z" fill="#231F20"></path></g><rect x="1" y="1" width="60" height="60" rx="2" stroke="#EAE9F2"></rect><defs><clipPath id="clip0_1060_910"><rect width="24.64" height="40" fill="white" transform="translate(19 11)"></rect></clipPath></defs></svg>