<svg xmlns="http://www.w3.org/2000/svg" width="62" height="62" viewBox="0 0 62 62" fill="none"><g clip-path="url(#clip0_1038_1380)"><path d="M30.9977 39.9958C26.0379 39.9958 22.0021 35.9607 22.0021 31.0009C22.0021 26.0404 26.0379 22.0046 30.9977 22.0046C35.0924 22.0046 38.5535 24.7547 39.6386 28.504H43.1191C41.9605 22.8727 36.9666 18.6255 30.9977 18.6255C24.1745 18.6255 18.623 24.177 18.623 31.0009C18.623 37.8241 24.1745 43.3756 30.9977 43.3756C36.9666 43.3756 41.9605 39.1291 43.1191 33.4979H39.6386C38.5535 37.2463 35.0924 39.9958 30.9977 39.9958Z" fill="#435363"></path><path d="M24.9326 37.0638C26.4862 38.6175 28.6315 39.5801 30.9968 39.5801V35.9935C29.6182 35.9935 28.3698 35.4336 27.4659 34.5305L24.9326 37.0638Z" fill="#435363"></path><path d="M22.417 31.0008C22.417 32.2284 22.6788 33.3963 23.145 34.4535L26.4257 33.0106C26.1546 32.3957 26.0028 31.7165 26.0028 31.0008C26.0028 28.2429 28.2388 26.0078 30.9959 26.0078V22.4211C26.2654 22.4211 22.417 26.2703 22.417 31.0008Z" fill="#F38B00"></path><path d="M34.1078 23.0056L32.8066 26.349C33.8692 26.7634 34.756 27.5278 35.3198 28.5037H39.2046C38.4379 25.9858 36.542 23.9559 34.1078 23.0056Z" fill="#435363"></path><path d="M32.8096 35.652L34.1099 38.9954C36.5441 38.0451 38.44 36.0144 39.2076 33.4966H35.3228C34.7574 34.4732 33.8714 35.2384 32.8096 35.652Z" fill="#F38B00"></path><path d="M15.1253 35.8C15.0688 35.6126 15.0145 35.4236 14.9642 35.2331C14.9611 35.2215 14.958 35.2098 14.9549 35.1982C14.9084 35.0216 14.8658 34.8451 14.8248 34.6669C14.8163 34.6305 14.8085 34.5941 14.8008 34.5577C14.7667 34.4051 14.7357 34.251 14.7055 34.0969C14.6924 34.028 14.6807 33.959 14.6691 33.8901C14.6474 33.767 14.6258 33.6446 14.6064 33.5199C14.5901 33.4138 14.5762 33.3085 14.5623 33.2024C14.4647 32.479 14.412 31.744 14.4128 30.9998H11.0244C11.0236 31.8114 11.0748 32.613 11.17 33.4045C11.1716 33.4216 11.1747 33.4386 11.177 33.4556C11.2033 33.6709 11.2328 33.8862 11.2661 34.0992C11.2754 34.1581 11.2854 34.2169 11.2955 34.2766C11.3249 34.4516 11.3551 34.6267 11.3892 34.8009C11.4062 34.8938 11.4264 34.9852 11.4457 35.0774C11.4744 35.216 11.5038 35.3547 11.5356 35.4925C11.5635 35.6133 11.5937 35.7342 11.6246 35.855C11.6518 35.9626 11.6781 36.0703 11.7067 36.1779C11.7455 36.3204 11.7865 36.4614 11.8276 36.6031C11.8446 36.662 11.8601 36.7224 11.8779 36.7805H11.8795C12.1133 37.5542 12.3906 38.3093 12.7128 39.0404L15.8177 37.675C15.5505 37.0694 15.3197 36.442 15.1253 35.8H15.1253Z" fill="#435363"></path><path d="M30.9973 47.5861C26.4248 47.5861 22.2797 45.7243 19.2771 42.7208L16.877 45.121C20.4915 48.7355 25.4822 50.9737 30.9973 50.9737C41.1825 50.9737 49.5856 43.3497 50.8147 33.4976H47.3954C46.1872 41.4615 39.2943 47.5861 30.9973 47.5861Z" fill="#F38B00"></path><path d="M30.998 14.4154C34.7132 14.4154 38.1449 15.643 40.9129 17.7147L42.9429 14.9939C39.611 12.5032 35.4769 11.0278 30.998 11.0278C22.5229 11.0278 15.2815 16.3067 12.3818 23.7564L15.5425 24.9863C17.955 18.8052 23.9735 14.4154 30.998 14.4154Z" fill="#F38B00"></path><path d="M47.3943 28.5042H50.8136C50.4473 25.565 49.442 22.8241 47.941 20.4248L45.0615 22.2216C46.2372 24.0982 47.0481 26.2257 47.3943 28.5042Z" fill="#435363"></path><path d="M43.5428 28.5039H46.9737C46.0784 22.7511 42.1387 17.9942 36.859 15.9333L35.6338 19.0839C39.6487 20.6515 42.6854 24.1885 43.5428 28.5039Z" fill="#F38B00"></path><path d="M30.998 18.2091L30.9988 14.8308H30.998C24.1493 14.8308 18.2826 19.1106 15.9297 25.1368L19.078 26.3621C20.9398 21.5951 25.5805 18.2091 30.998 18.2091Z" fill="#435363"></path><path d="M18.2074 30.9998H14.8291C14.8291 37.7943 19.0431 43.6207 24.9942 46.0092L26.2488 42.8733C21.5408 40.9836 18.2074 36.3747 18.2074 30.9998Z" fill="#F38B00"></path><path d="M30.998 43.791V47.17C39.065 47.17 45.7705 41.2313 46.9748 33.4966H43.5431C42.379 39.3594 37.197 43.791 30.998 43.791Z" fill="#435363"></path></g><rect x="1" y="1" width="60" height="60" rx="2" stroke="#EAE9F2"></rect><defs><clipPath id="clip0_1038_1380"><rect width="39.8385" height="40" fill="white" transform="translate(11 11)"></rect></clipPath></defs></svg>