<svg xmlns="http://www.w3.org/2000/svg" width="82" height="82" viewBox="0 0 82 82" fill="none"><rect x="1" y="1" width="80" height="80" rx="3" fill="white"></rect><path d="M57.0657 42.0731L58.0501 54.6356L40.6251 57.7625L39.1251 45.2L41.6145 44.8525C42.0195 45.0262 42.3095 45.0837 42.7726 45.2C43.5251 45.3737 44.3939 45.605 45.6664 44.9106C45.9557 44.7369 46.5926 44.2156 46.8245 43.8687L57.0657 42.0731ZM30.1451 57.0106C29.8557 56.5481 29.3345 56.0262 28.5239 55.3894C27.3657 54.4631 27.7714 52.8419 28.4657 51.8581C29.3407 50.1794 33.9076 47.9794 33.6764 45.2581C33.5607 44.2737 33.4451 43 32.5182 42.0737C32.4601 42.4212 32.5182 42.7687 32.5182 42.7687C32.5182 42.7687 32.1132 42.3062 31.9395 41.6106C31.7657 41.3794 31.592 41.2631 31.4182 40.9156C31.3026 41.3206 31.3026 41.7262 31.3026 41.7262C31.3026 41.7262 31.0132 40.9737 30.9551 40.395C30.7814 40.6844 30.7239 41.2056 30.7239 41.2056C30.7239 41.2056 30.3189 40.0475 30.4345 39.4119C30.2607 38.8906 29.682 37.7906 29.8557 35.3594C30.8401 36.0544 33.0401 35.8806 33.9082 34.6069C34.1976 34.2019 34.3707 33.0444 33.7926 30.7856C33.3876 29.3381 32.4032 27.1962 31.9989 26.3856L31.9407 26.4437C32.172 27.0812 32.5782 28.47 32.7514 29.165C33.2139 31.1912 33.3889 31.8862 33.1564 32.8125C32.9826 33.6231 32.5189 34.1437 31.3039 34.7231C30.1457 35.3019 28.5251 33.8481 28.4664 33.7969C27.3082 32.8706 26.4401 31.3594 26.3245 30.6706C26.2089 29.86 26.787 29.3969 27.077 28.76C26.672 28.8756 26.202 29.1075 26.202 29.1075C26.202 29.1075 26.7232 28.5287 27.4176 28.0656C27.6816 27.9116 27.9332 27.7374 28.1701 27.5444H27.4251C27.4251 27.5444 28.1201 27.1394 28.8726 26.9069H27.8314L30.6101 25.6912C31.4851 25.3437 32.2889 25.46 32.752 26.0962C33.3895 26.9712 34.0257 27.4275 35.357 27.775C36.1676 27.4275 36.457 27.1962 37.4989 26.9C38.4251 25.8581 39.1776 25.7419 39.1776 25.7419C39.1776 25.7419 38.6564 26.2044 38.5989 26.7262C39.1201 26.3212 39.6989 25.9737 39.6989 25.9737C39.6989 25.9737 39.4676 26.2631 39.2939 26.6687L39.352 26.7269C39.9895 26.3794 40.6832 26.0894 40.6832 26.0894C40.6832 26.0894 40.452 26.3206 40.2207 26.6681C40.6832 26.6681 41.6101 26.6681 41.9582 26.7262C44.1001 26.7844 44.5632 24.4681 45.3739 24.1212C46.4157 23.7737 46.8789 23.5425 48.6157 25.2794C50.1207 26.7844 51.2782 29.39 50.7001 29.9687C50.2376 30.4312 49.2526 29.795 48.1526 28.4637C47.5739 27.7687 47.1682 26.9012 46.937 25.8587C46.8214 24.9837 46.1845 24.4694 46.1845 24.4694C46.1845 24.4694 46.5895 25.3444 46.5895 26.0906C46.5895 26.4956 46.6476 28.0012 47.2845 28.8694C47.2264 28.985 47.1689 29.5069 47.1107 29.5644C46.3582 28.6381 44.6732 28.0019 44.4482 27.7706C45.3745 28.5231 47.4589 30.2081 48.2695 31.8231C49.022 33.3856 48.5589 34.7756 48.9645 35.1231C49.0801 35.2387 50.5857 37.0919 50.8751 38.0756C51.3964 39.7544 50.9332 41.4912 50.2376 42.5331L48.3851 42.8225C48.1431 42.7805 47.9089 42.7023 47.6901 42.5906C47.8057 42.3594 48.0951 41.78 48.0951 41.6644L47.9795 41.4906C47.4007 42.3012 46.417 43.1119 45.6057 43.575C44.5639 44.1537 43.3476 44.0962 42.5432 43.8062C40.2851 43.1112 38.1432 41.6062 37.6807 41.2012C37.6807 41.2012 37.6807 41.4906 37.7389 41.6062C38.6764 42.5929 39.7255 43.4671 40.8651 44.2112L38.2026 44.5006L39.4764 54.3425C38.8976 54.4006 38.8389 54.4581 38.2026 54.5737C37.6814 52.6631 36.6401 51.4475 35.4814 50.695C34.497 50.0575 33.1076 49.8844 31.7764 50.1737L31.7182 50.2894C32.6445 50.1737 33.7445 50.3475 34.8445 51.0419C35.9445 51.7362 36.8132 53.5312 37.1601 54.5731C37.5651 55.9625 37.8551 57.4106 36.7551 58.9731C35.9445 60.0731 33.6289 60.7106 31.7764 59.3781C32.2976 60.1887 32.9345 60.8256 33.8607 60.9406C35.192 61.1144 36.4657 60.8825 37.392 60.0144C38.1445 59.2619 38.5501 57.6406 38.4339 55.9037L39.6495 55.73L40.0545 58.7925L59.7876 56.4375L58.0501 40.6906L57.0657 40.8644L55.0976 21L22.2139 24.8212L26.2664 57.5887L30.1451 57.0106Z" fill="#5C2D90"></path><path d="M45.7909 39.7871C46.6659 40.4246 47.4121 40.8289 48.1646 40.7714C48.6271 40.7133 49.0909 39.9608 49.3802 39.2664C49.6115 38.8039 49.6115 38.2821 49.2646 38.1083C49.0909 38.0502 48.3896 38.0502 47.8752 38.1083C46.8909 38.2239 45.9065 38.5708 45.6752 38.7458C45.3277 38.9771 45.5015 39.5564 45.7909 39.7877V39.7871ZM46.0221 33.0127V33.0708L46.0802 33.1864C46.3115 33.6489 46.5427 34.1127 47.0065 34.3446C47.1221 34.3446 47.2377 34.2864 47.354 34.2864C47.759 34.2864 47.9915 34.3446 48.1646 34.4021V34.0546C48.1065 33.4758 48.2802 32.4333 47.1227 31.8546C46.6602 31.6233 46.0809 31.7389 45.849 31.9702H45.9646C46.254 32.0858 46.0802 32.2014 46.0227 32.3177C45.9646 32.5489 45.9071 32.6071 46.0227 33.0127" fill="#5C2D90"></path><path d="M40.8115 33.1295C41.1009 32.8983 39.4803 32.5508 38.2065 33.3608C37.2803 33.9983 37.2803 35.3296 38.1484 36.0821C38.2355 36.1253 38.3139 36.1842 38.3796 36.2558C38.6109 36.1402 38.9584 36.0246 39.2546 35.9083C39.8334 35.7346 40.2965 35.6189 40.7021 35.5608C40.8759 35.3296 41.1071 34.982 41.0496 34.3452C40.9915 33.4702 40.2971 33.6502 40.8184 33.1295H40.8115ZM50.2546 47.1921L47.4759 51.8171L44.234 50.8327L41.3965 55.1746L41.5121 56.5639L57.0278 53.7264L56.1015 44.0577L53.554 49.3839L50.2546 47.1921Z" fill="#5C2D90"></path><rect x="1" y="1" width="80" height="80" rx="3" stroke="#EAEAEC"></rect></svg>