<svg xmlns="http://www.w3.org/2000/svg" width="62" height="62" viewBox="0 0 62 62" fill="none"><g clip-path="url(#clip0_1060_987)"><path d="M31.0115 49.8867L38.3715 27.2351H23.6514L31.0114 49.8867H31.0115Z" fill="#E24329"></path><path d="M31.0118 49.8869L23.6516 27.2354H13.3369L31.0118 49.8869Z" fill="#FC6D26"></path><path d="M13.3361 27.2354L11.0995 34.1191C11.0001 34.4251 11 34.7548 11.0995 35.0608C11.1989 35.3668 11.3926 35.6335 11.6529 35.8227L31.011 49.887L13.3359 27.2355L13.3361 27.2354Z" fill="#FCA326"></path><path d="M13.3369 27.2351H23.6516L19.2189 13.5921C18.9908 12.8901 17.9977 12.8903 17.7697 13.5921L13.3369 27.2351Z" fill="#E24329"></path><path d="M31.0119 49.8869L38.3719 27.2354H48.6867L31.0117 49.8869H31.0119Z" fill="#FC6D26"></path><path d="M48.6855 27.2354L50.9221 34.1191C51.0215 34.4251 51.0215 34.7548 50.922 35.0608C50.8226 35.3668 50.6288 35.6335 50.3685 35.8227L31.0107 49.887L48.6855 27.2355V27.2354Z" fill="#FCA326"></path><path d="M48.6854 27.2351H38.3706L42.8034 13.5921C43.0315 12.8901 44.0247 12.8903 44.2526 13.5921L48.6854 27.2351Z" fill="#E24329"></path></g><rect x="1" y="1" width="60" height="60" rx="2" stroke="#EAE9F2"></rect><defs><clipPath id="clip0_1060_987"><rect width="40" height="36.88" fill="white" transform="translate(11 13)"></rect></clipPath></defs></svg>