<svg xmlns="http://www.w3.org/2000/svg" width="62" height="62" viewBox="0 0 62 62" fill="none"><path d="M47.5008 20.5995C47.272 19.8676 46.7231 19.2729 46.037 18.907L32.0858 12.2287C31.7198 12.0457 31.3082 12 30.9422 12C30.5763 12 30.1646 12 29.7987 12.0915L15.8475 18.8155C15.1613 19.1357 14.6582 19.7304 14.4752 20.508L11.0446 35.557C10.9073 36.3346 11.0903 37.1122 11.5477 37.7526L21.1992 49.6912C21.7481 50.2401 22.5258 50.606 23.3034 50.6518H38.6726C39.4959 50.7433 40.2736 50.3773 40.7767 49.6912L50.4282 37.7526C50.8856 37.1122 51.0686 36.3346 50.9771 35.557L47.5008 20.5995Z" fill="#326DE6"></path><path d="M45.3524 34.9627C45.3066 34.9627 45.2609 34.9627 45.2609 34.917C45.2609 34.8713 45.1694 34.8713 45.0779 34.8713C44.8949 34.8255 44.712 34.8255 44.529 34.8255C44.4375 34.8255 44.346 34.8255 44.2545 34.7798H44.2088C43.7056 34.734 43.1567 34.6426 42.6536 34.5053C42.5164 34.4596 42.3791 34.3224 42.3334 34.1851C42.3791 34.1851 42.3334 34.1851 42.3334 34.1851L41.9675 34.0937C42.1504 32.7671 42.0589 31.3949 41.7845 30.0684C41.4643 28.7419 40.9154 27.4611 40.1835 26.3176L40.458 26.0431V25.9974C40.458 25.8601 40.5037 25.6772 40.5952 25.5857C41.0069 25.2198 41.4186 24.9453 41.876 24.6709C41.9675 24.6251 42.0589 24.5794 42.1504 24.5336C42.3334 24.4421 42.4706 24.3507 42.6536 24.2592C42.6993 24.2134 42.7451 24.2134 42.7908 24.1677C42.8366 24.122 42.7908 24.1219 42.7908 24.0762C43.2025 23.756 43.294 23.2071 42.9738 22.7954C42.8366 22.6125 42.5621 22.4752 42.3334 22.4752C42.1047 22.4752 41.876 22.5667 41.693 22.704L41.6473 22.7497C41.6015 22.7954 41.5558 22.8412 41.51 22.8412C41.3728 22.9784 41.2356 23.1156 41.1441 23.2529C41.0984 23.3443 41.0069 23.3901 40.9611 23.4358C40.6409 23.8018 40.2293 24.1677 39.8176 24.4421C39.7261 24.4879 39.6346 24.5336 39.5431 24.5336C39.4974 24.5336 39.4059 24.5336 39.3602 24.4879H39.3144L38.9485 24.7166C38.5826 24.3507 38.1709 23.9847 37.805 23.6188C36.1125 22.2923 34.0084 21.4689 31.8585 21.2402L31.8128 20.8743V20.92C31.6756 20.8285 31.6298 20.6913 31.5841 20.5541C31.5841 20.0509 31.5841 19.5478 31.6756 18.9989V18.9531C31.6756 18.8616 31.7213 18.7702 31.7213 18.6787C31.767 18.4957 31.767 18.3127 31.8128 18.1298V17.8553C31.8585 17.3979 31.4926 16.9405 31.0352 16.8948C30.7607 16.849 30.4863 16.9862 30.2576 17.2149C30.0746 17.3979 29.9831 17.6266 29.9831 17.8553V18.084C29.9831 18.267 30.0289 18.45 30.0746 18.6329C30.1203 18.7244 30.1203 18.8159 30.1203 18.9074V18.9531C30.2118 19.4563 30.2118 19.9594 30.2118 20.5084C30.1661 20.6456 30.1203 20.7828 29.9831 20.8743V20.9658L29.9374 21.3317C29.4342 21.3774 28.9311 21.4689 28.3822 21.5604C26.2323 22.0178 24.2654 23.1614 22.7559 24.7623L22.4815 24.5794H22.4357C22.39 24.5794 22.3442 24.6251 22.2528 24.6251C22.1613 24.6251 22.0698 24.5794 21.9783 24.5336C21.5666 24.2134 21.155 23.8475 20.8348 23.4816C20.789 23.3901 20.6975 23.3443 20.6518 23.2986C20.5146 23.1614 20.4231 23.0241 20.2859 22.8869C20.2401 22.8412 20.1944 22.8412 20.1486 22.7954C20.1029 22.7497 20.1029 22.7497 20.1029 22.7497C19.9199 22.6125 19.6912 22.521 19.4625 22.521C19.1881 22.521 18.9594 22.6125 18.8221 22.8412C18.5477 23.2529 18.6392 23.8018 19.0051 24.1219C19.0508 24.1219 19.0508 24.1677 19.0508 24.1677C19.0508 24.1677 19.1423 24.2592 19.1881 24.2592C19.3253 24.3507 19.5083 24.4421 19.6912 24.5336C19.7827 24.5794 19.8742 24.6251 19.9657 24.6709C20.4231 24.9453 20.8805 25.2198 21.2464 25.5857C21.3379 25.6772 21.4294 25.8601 21.3837 25.9974V25.9516L21.6581 26.2261C21.6124 26.3176 21.5666 26.3633 21.5209 26.4548C20.1029 28.6961 19.5083 31.3491 19.9199 33.9564L19.554 34.0479C19.554 34.0937 19.5083 34.0937 19.5083 34.0937C19.4625 34.2309 19.3253 34.3224 19.1881 34.4138C18.6849 34.5511 18.1817 34.6426 17.6328 34.6883C17.5414 34.6883 17.4499 34.6883 17.3584 34.734C17.1754 34.734 16.9925 34.7798 16.8095 34.7798C16.7638 34.7798 16.718 34.8255 16.6265 34.8255C16.5808 34.8255 16.5808 34.8255 16.535 34.8713C16.0319 34.9627 15.7117 35.4202 15.8032 35.9233C15.8947 36.335 16.3063 36.6095 16.718 36.5637C16.8095 36.5637 16.8552 36.5637 16.9467 36.518C16.9925 36.518 16.9925 36.518 16.9925 36.4722C16.9925 36.4265 17.1297 36.4722 17.1754 36.4722C17.3584 36.4265 17.5414 36.335 17.6786 36.2893C17.7701 36.2435 17.8616 36.1978 17.953 36.1978H17.9988C18.5019 36.0148 18.9594 35.8776 19.5083 35.7861H19.554C19.6912 35.7861 19.8284 35.8318 19.9199 35.9233C19.9657 35.9233 19.9657 35.9691 19.9657 35.9691L20.3774 35.9233C21.0635 38.0274 22.3442 39.9029 24.1282 41.2751C24.5398 41.5953 24.9058 41.8698 25.3632 42.0985L25.1345 42.4187C25.1345 42.4644 25.1802 42.4644 25.1802 42.4644C25.2717 42.6016 25.2717 42.7846 25.226 42.9218C25.043 43.3792 24.7686 43.8367 24.4941 44.2483V44.2941C24.4484 44.3856 24.4026 44.4313 24.3111 44.5228C24.2197 44.6143 24.1282 44.7972 23.9909 44.9802C23.9452 45.0259 23.9452 45.0717 23.8995 45.1174C23.8995 45.1174 23.8995 45.1632 23.8537 45.1632C23.625 45.6206 23.808 46.1695 24.2197 46.3982C24.3111 46.4439 24.4484 46.4897 24.5399 46.4897C24.9058 46.4897 25.226 46.261 25.4089 45.9408C25.4089 45.9408 25.4089 45.895 25.4547 45.895C25.4547 45.8493 25.5004 45.8035 25.5462 45.7578C25.5919 45.5748 25.6834 45.4376 25.7291 45.2546L25.8206 44.9802C25.9578 44.477 26.1866 44.0196 26.4153 43.5622C26.5067 43.425 26.644 43.3335 26.7812 43.2878C26.8269 43.2878 26.8269 43.2878 26.8269 43.242L27.0099 42.8761C28.2907 43.3792 29.6172 43.6079 30.9894 43.6079C31.8128 43.6079 32.6361 43.5165 33.4595 43.2878C33.9627 43.1963 34.4658 43.0133 34.9232 42.8761L35.1062 43.1963C35.1519 43.1963 35.1519 43.1963 35.1519 43.242C35.2892 43.2878 35.4264 43.3792 35.5179 43.5165C35.7466 43.9739 35.9753 44.4313 36.1125 44.9345V44.9802L36.204 45.2546C36.2497 45.4376 36.2955 45.6206 36.387 45.7578C36.4327 45.8035 36.4327 45.8493 36.4784 45.895C36.4784 45.895 36.4784 45.9408 36.5242 45.9408C36.7072 46.261 37.0273 46.4897 37.3933 46.4897C37.5305 46.4897 37.622 46.4439 37.7592 46.3982C37.9422 46.3067 38.1252 46.1237 38.1709 45.895C38.2166 45.6663 38.2166 45.4376 38.1252 45.2089C38.1252 45.1632 38.0794 45.1632 38.0794 45.1632C38.0794 45.1174 38.0337 45.0717 37.9879 45.0259C37.8964 44.843 37.805 44.7057 37.6677 44.5685C37.622 44.477 37.5763 44.4313 37.4848 44.3398V44.2483C37.1646 43.8367 36.9359 43.3792 36.7529 42.9218C36.7072 42.7846 36.7072 42.6016 36.7986 42.4644C36.7986 42.4187 36.8444 42.4187 36.8444 42.4187L36.7072 42.0527C39.04 40.6347 40.8239 38.4391 41.6473 35.8318L42.0132 35.8776C42.0589 35.8776 42.0589 35.8318 42.0589 35.8318C42.1504 35.7404 42.2877 35.6946 42.4249 35.6946H42.4706C42.9738 35.7861 43.4769 35.9233 43.9344 36.1063H43.9801C44.0716 36.152 44.1631 36.1978 44.2545 36.1978C44.4375 36.2893 44.5747 36.3807 44.7577 36.4265C44.8034 36.4265 44.8492 36.4722 44.9407 36.4722C44.9864 36.4722 44.9864 36.4722 45.0322 36.518C45.1236 36.5637 45.1694 36.5637 45.2609 36.5637C45.6725 36.5637 46.0385 36.2893 46.1757 35.9233C46.13 35.4202 45.764 35.0542 45.3524 34.9627ZM32.133 33.5448L30.898 34.1394L29.6629 33.5448L29.3427 32.2182L30.2118 31.1204H31.5841L32.4532 32.2182L32.133 33.5448ZM39.5889 30.5715C39.8176 31.5321 39.8633 32.4927 39.7719 33.4533L35.4264 32.2182C35.0147 32.1268 34.786 31.7151 34.8775 31.3034C34.9232 31.1662 34.969 31.0747 35.0605 30.9832L38.4911 27.8728C38.9942 28.6961 39.3602 29.611 39.5889 30.5715ZM37.1188 26.1803L33.368 28.8334C33.0478 29.0163 32.5904 28.9706 32.3617 28.6504C32.2702 28.5589 32.2245 28.4674 32.2245 28.3302L31.95 23.7103C33.9627 23.939 35.7466 24.8081 37.1188 26.1803ZM28.8396 23.8475L29.7544 23.6645L29.5257 28.2387C29.5257 28.6504 29.1598 28.9706 28.7481 28.9706C28.6109 28.9706 28.5194 28.9248 28.3822 28.8791L24.5856 26.1803C25.7749 25.0368 27.2386 24.2134 28.8396 23.8475ZM23.2591 27.8728L26.644 30.8917C26.9642 31.1662 27.0099 31.6236 26.7355 31.9438C26.644 32.081 26.5525 32.1268 26.3695 32.1725L21.9326 33.4533C21.7953 31.5321 22.2528 29.5652 23.2591 27.8728ZM22.4815 35.6031L27.0099 34.8255C27.3758 34.8255 27.7418 35.0542 27.7875 35.4202C27.8333 35.5574 27.8333 35.7404 27.7418 35.8776L26.0036 40.0858C24.4026 39.0338 23.1219 37.4328 22.4815 35.6031ZM32.8648 41.2751C32.2245 41.4123 31.5841 41.5038 30.898 41.5038C29.9374 41.5038 28.9311 41.3209 28.0162 41.0464L30.2576 36.9754C30.4863 36.7009 30.8522 36.6095 31.1724 36.7924C31.3096 36.8839 31.4011 36.9754 31.5383 37.1126L33.7339 41.0921C33.4595 41.1379 33.185 41.1836 32.8648 41.2751ZM38.4453 37.2956C37.7592 38.3934 36.7986 39.354 35.7008 40.0401L33.9169 35.7404C33.8254 35.3744 34.0084 35.0085 34.3286 34.8713C34.4658 34.8255 34.603 34.7798 34.7403 34.7798L39.3144 35.5574C39.0857 36.1978 38.8113 36.7924 38.4453 37.2956Z" fill="white"></path><rect x="1" y="1" width="60" height="60" rx="2" stroke="#EAE9F2"></rect></svg>