<svg xmlns="http://www.w3.org/2000/svg" width="62" height="62" viewBox="0 0 62 62" fill="none"><path d="M24.8907 13.7265H35.7398L24.4773 47.0961C24.3616 47.439 24.1412 47.7369 23.8472 47.948C23.5533 48.1591 23.2005 48.2727 22.8386 48.2727H14.3953C14.121 48.2728 13.8508 48.2075 13.6068 48.0824C13.3628 47.9572 13.1521 47.7758 12.9922 47.553C12.8323 47.3303 12.7277 47.0727 12.687 46.8015C12.6464 46.5303 12.6709 46.2534 12.7586 45.9936L23.2515 14.9032C23.3672 14.5601 23.5876 14.262 23.8817 14.0509C24.1757 13.8397 24.5286 13.7261 24.8907 13.7261V13.7265Z" fill="url(#paint0_linear_1110_902)"></path><path d="M40.6571 36.1084H23.4529C23.2929 36.1082 23.1367 36.1562 23.0044 36.2461C22.8721 36.3361 22.77 36.4637 22.7113 36.6125C22.6526 36.7613 22.6401 36.9243 22.6754 37.0803C22.7107 37.2363 22.7921 37.3781 22.9091 37.4871L33.9641 47.8055C34.286 48.1057 34.7098 48.2727 35.15 48.2726H44.8916L40.6571 36.1084Z" fill="#0078D4"></path><path d="M24.8909 13.7266C24.5249 13.7252 24.1681 13.8408 23.8725 14.0566C23.5769 14.2725 23.3581 14.5771 23.248 14.9262L12.7717 45.9653C12.6782 46.2261 12.6488 46.5055 12.6861 46.7801C12.7234 47.0546 12.8263 47.3161 12.986 47.5424C13.1457 47.7688 13.3576 47.9533 13.6038 48.0805C13.8499 48.2076 14.123 48.2736 14.4001 48.2728H23.0613C23.3839 48.2152 23.6854 48.073 23.935 47.8607C24.1847 47.6484 24.3735 47.3736 24.4822 47.0645L26.5713 40.9074L34.0338 47.8678C34.3465 48.1265 34.7388 48.2695 35.1447 48.2728H44.8501L40.5934 36.1087L28.1847 36.1116L35.7792 13.7266H24.8909Z" fill="url(#paint1_linear_1110_902)"></path><path d="M38.7479 14.9018C38.6324 14.5593 38.4123 14.2617 38.1187 14.0509C37.8251 13.8401 37.4727 13.7268 37.1113 13.7268H25.02C25.3815 13.7268 25.7338 13.8402 26.0274 14.051C26.321 14.2618 26.5411 14.5594 26.6567 14.9018L37.15 45.9935C37.2377 46.2533 37.2623 46.5304 37.2217 46.8016C37.1811 47.0729 37.0766 47.3305 36.9166 47.5534C36.7567 47.7762 36.546 47.9577 36.302 48.0829C36.0579 48.2081 35.7876 48.2735 35.5134 48.2735H47.605C47.8793 48.2734 48.1495 48.208 48.3935 48.0828C48.6375 47.9575 48.8481 47.776 49.008 47.5532C49.1679 47.3304 49.2724 47.0727 49.313 46.8015C49.3536 46.5303 49.329 46.2533 49.2413 45.9935L38.7479 14.9018Z" fill="url(#paint2_linear_1110_902)"></path><rect x="1" y="1" width="60" height="60" rx="2" stroke="#EAE9F2"></rect><defs><linearGradient id="paint0_linear_1110_902" x1="28.8448" y1="16.2865" x2="17.5777" y2="49.5723" gradientUnits="userSpaceOnUse"><stop stop-color="#114A8B"></stop><stop offset="1" stop-color="#0669BC"></stop></linearGradient><linearGradient id="paint1_linear_1110_902" x1="32.3647" y1="31.7987" x2="29.7584" y2="32.6799" gradientUnits="userSpaceOnUse"><stop stop-opacity="0.3"></stop><stop offset="0.071" stop-opacity="0.2"></stop><stop offset="0.321" stop-opacity="0.1"></stop><stop offset="0.623" stop-opacity="0.05"></stop><stop offset="1" stop-opacity="0"></stop></linearGradient><linearGradient id="paint2_linear_1110_902" x1="30.9313" y1="15.316" x2="43.2992" y2="48.2664" gradientUnits="userSpaceOnUse"><stop stop-color="#3CCBF4"></stop><stop offset="1" stop-color="#2892DF"></stop></linearGradient></defs></svg>