<svg xmlns="http://www.w3.org/2000/svg" width="62" height="62" viewBox="0 0 62 62" fill="none"><path d="M36.5272 21.4046L32.8496 15H23.201C22.3421 15 21.5415 15.4587 21.1246 16.2092L13.319 29.8106C12.8937 30.5528 12.8937 31.4534 13.319 32.204L16.2878 37.3827L19.9571 31.0114L25.4777 21.4046H36.5272Z" fill="#F8BB16"></path><path d="M48.6879 29.8106L40.8823 16.2092C40.4487 15.467 39.6564 15 38.8058 15H32.8516L36.5292 21.4046L42.0498 31.0114L36.5292 40.6183H43.8678L48.6879 32.204C49.1048 31.4618 49.1048 30.5528 48.6879 29.8106Z" fill="#EA4334"></path><path d="M43.8554 40.61H25.4589L19.9383 31.0032L16.269 37.3744L21.1058 45.7971C21.5395 46.5393 22.3317 47.0063 23.1823 47.0063H38.7851C39.6441 47.0063 40.4447 46.5476 40.8616 45.7971L43.8554 40.61Z" fill="#0074BC"></path><path d="M36.5087 40.61H25.4508L19.9385 31.0031L25.4591 21.3962H36.5087L42.0459 31.0031L36.5087 40.61ZM30.988 26.208C28.3278 26.208 26.1846 28.3512 26.1846 31.0114C26.1846 33.6717 28.3278 35.8149 30.988 35.8149C33.6483 35.8149 35.7915 33.6717 35.7915 31.0114C35.7915 28.3512 33.6399 26.208 30.988 26.208Z" fill="#E2E3E4"></path><rect x="1" y="1" width="60" height="60" rx="2" stroke="#EAE9F2"></rect></svg>