<svg xmlns="http://www.w3.org/2000/svg" width="62" height="62" viewBox="0 0 62 62" fill="none"><path d="M11 31C11 42.0457 19.9543 51 31 51C42.0457 51 51 42.0457 51 31C51 19.9543 42.0457 11 31 11C19.9543 11 11 19.9543 11 31Z" fill="#F5F5F5"></path><path d="M45.0543 29.3944C45.084 29.3944 45.1137 29.3944 45.1306 29.3647C45.1349 29.352 45.1391 29.3393 45.1391 29.3265C45.1391 29.3011 45.1264 29.2799 45.1052 29.2672C45.084 29.2587 45.0628 29.2587 45.0161 29.2587H44.9949V29.3902H45.0543V29.3944ZM45.0161 29.1866C45.0797 29.1866 45.1094 29.1866 45.1349 29.1993C45.2197 29.2248 45.2282 29.3011 45.2282 29.3265C45.2282 29.3308 45.2282 29.3478 45.2239 29.3647C45.2197 29.3817 45.2112 29.4156 45.1646 29.4453C45.1561 29.4495 45.1561 29.4495 45.1433 29.4538L45.2494 29.6489H45.1476L45.0543 29.4707H44.9949V29.6489H44.9016V29.1866H45.0161ZM45.0543 29.8397C45.2833 29.8397 45.4657 29.6531 45.4657 29.4283C45.4657 29.1993 45.2833 29.017 45.0543 29.017C44.8295 29.017 44.6472 29.1993 44.6472 29.4283C44.6472 29.6531 44.8295 29.8397 45.0543 29.8397ZM44.732 29.4283C44.732 29.2502 44.8762 29.1018 45.0543 29.1018C45.2366 29.1018 45.3808 29.2502 45.3808 29.4283C45.3808 29.6022 45.2324 29.7506 45.0543 29.7506C44.8804 29.7506 44.732 29.6022 44.732 29.4283ZM41.8736 32.045C41.3308 32.045 40.877 31.6802 40.7371 31.1841H43.7396L44.1552 30.5394H40.7328C40.8685 30.0433 41.3308 29.6743 41.8694 29.6743H43.9389L44.3503 29.0297H41.8227C40.8092 29.0297 39.9907 29.8482 39.9907 30.8575C39.9907 31.8668 40.8092 32.6853 41.8227 32.6853H43.9941L44.4054 32.0407H41.8694L41.8736 32.045ZM33.2689 32.6896C32.2595 32.6896 31.4411 31.8711 31.4411 30.8617C31.4411 29.8524 32.2595 29.0339 33.2689 29.0339H35.7964L35.3808 29.6785H33.3113C32.6582 29.6785 32.1281 30.2087 32.1281 30.8617C32.1281 31.5148 32.6582 32.045 33.3113 32.045H35.8473L35.4317 32.6896H33.2604H33.2689ZM19.9101 32.045C20.5632 32.045 21.0975 31.5148 21.0975 30.8617C21.0975 30.2087 20.5674 29.6785 19.9101 29.6785H17.8787C17.2256 29.6785 16.6955 30.2087 16.6955 30.8617C16.6955 31.5148 17.2256 32.045 17.8787 32.045H19.9101ZM17.8321 32.6896C16.8185 32.6896 16 31.8711 16 30.8617C16 29.8524 16.8185 29.0339 17.8321 29.0339H19.9567C20.9661 29.0339 21.7846 29.8524 21.7846 30.8617C21.7846 31.8711 20.9661 32.6896 19.9567 32.6896H17.8321ZM25.2366 31.5064C25.9237 31.5064 26.475 30.9508 26.475 30.268C26.475 29.5852 25.9237 29.0297 25.2366 29.0297H22.1578V32.6896H22.8617V29.6743H25.19C25.5123 29.6743 25.7795 29.9415 25.7795 30.268C25.7795 30.5946 25.5123 30.8575 25.19 30.8575H23.2053L25.3003 32.6896H26.3223L24.9101 31.5064H25.2282H25.2366ZM36.8736 32.045V29.0339H36.1739V32.3418C36.1739 32.4351 36.2078 32.5199 36.2757 32.5878C36.3435 32.6514 36.4368 32.6938 36.5344 32.6938H39.7447L40.1603 32.0492H36.8779L36.8736 32.045ZM28.2646 31.4003H30.1433L29.151 29.8015L27.3274 32.6938H26.5004L28.7142 29.2248C28.8117 29.0848 28.9729 29 29.151 29C29.3206 29 29.4818 29.0806 29.5793 29.2163L31.8015 32.6938H30.9703L30.5802 32.0492H28.6802L28.2646 31.4046V31.4003Z" fill="#E32124"></path><rect x="1" y="1" width="60" height="60" rx="2" stroke="#EAE9F2"></rect></svg>