<svg xmlns="http://www.w3.org/2000/svg" width="62" height="62" viewBox="0 0 62 62" fill="none"><g clip-path="url(#clip0_1060_907)"><path d="M48.2312 26.9864H35.6718C35.3691 26.9863 35.0788 26.866 34.8647 26.6519C34.6506 26.4379 34.5303 26.1476 34.5301 25.8449V12.7556C34.5301 11.7863 33.7441 11 32.7753 11H28.2919C27.3224 11 26.5369 11.7863 26.5369 12.7556V25.7656C26.5369 26.4406 25.9912 26.9892 25.3162 26.9922L21.2004 27.0118C20.5196 27.0155 19.9666 26.4632 19.9679 25.783L19.9934 12.7585C19.9956 11.7877 19.2094 11 18.2386 11H13.7589C12.7893 11 12.0039 11.7863 12.0039 12.7556V49.4074C12.0039 50.2685 12.7015 50.966 13.5618 50.966H48.2312C49.0923 50.966 49.7899 50.2685 49.7899 49.4074V28.5451C49.7899 27.684 49.0923 26.9864 48.2312 26.9864ZM42.3416 40.7477C42.3416 41.8762 41.4268 42.7911 40.2984 42.7911H36.7552C35.6266 42.7911 34.7118 41.8762 34.7118 40.7477V37.2046C34.7118 36.076 35.6266 35.1612 36.7552 35.1612H40.2984C41.4268 35.1612 42.3416 36.076 42.3416 37.2046V40.7477Z" fill="#FF6600"></path></g><rect x="1" y="1" width="60" height="60" rx="2" stroke="#EAE9F2"></rect><defs><clipPath id="clip0_1060_907"><rect width="37.792" height="40" fill="white" transform="translate(12 11)"></rect></clipPath></defs></svg>