<svg xmlns="http://www.w3.org/2000/svg" width="62" height="62" viewBox="0 0 62 62" fill="none"><g clip-path="url(#clip0_1060_913)"><path d="M49.425 40.3923C47.2907 41.5047 36.2349 46.0505 33.8811 47.2776C31.5274 48.5049 30.2198 48.493 28.3604 47.6041C26.5011 46.7152 14.7356 41.9627 12.6162 40.9496C11.5571 40.4435 11 40.0161 11 39.6124V35.5701C11 35.5701 26.3172 32.2356 28.79 31.3484C31.2626 30.4612 32.1205 30.4292 34.2248 31.2C36.3294 31.9711 48.9121 34.2413 50.9919 35.003L50.9909 38.9882C50.9912 39.3878 50.5113 39.8261 49.425 40.3923Z" fill="#912626"></path><path d="M49.4227 36.374C47.2886 37.486 36.233 42.0319 33.8793 43.2589C31.5257 44.4863 30.2182 44.4743 28.3589 43.5854C26.4994 42.6971 14.7345 37.9439 12.6152 36.9314C10.4959 35.9183 10.4516 35.2211 12.5333 34.406C14.6151 33.5905 26.3155 29.0001 28.7886 28.1129C31.2613 27.2261 32.119 27.1937 34.2233 27.9648C36.3277 28.7356 47.3174 33.1099 49.3968 33.8714C51.477 34.6339 51.5568 35.2618 49.4227 36.374Z" fill="#C6302B"></path><path d="M49.425 33.8511C47.2907 34.9637 36.2349 39.5093 33.8811 40.7369C31.5274 41.9636 30.2198 41.9518 28.3604 41.0629C26.5009 40.1745 14.7356 35.4215 12.6162 34.4085C11.5571 33.9023 11 33.4755 11 33.0717V29.0289C11 29.0289 26.3172 25.6946 28.79 24.8075C31.2626 23.9203 32.1205 23.8881 34.2248 24.659C36.3295 25.43 48.9123 27.6997 50.9919 28.4616L50.9909 32.4472C50.9912 32.8466 50.5113 33.2849 49.425 33.8511Z" fill="#912626"></path><path d="M49.4227 29.8337C47.2886 30.9459 36.233 35.4916 33.8793 36.719C31.5257 37.9459 30.2182 37.9339 28.3589 37.045C26.4994 36.1568 14.7345 31.4037 12.6152 30.3911C10.4959 29.3783 10.4516 28.6809 12.5333 27.8655C14.6151 27.0505 26.3157 22.4597 28.7886 21.5727C31.2613 20.6857 32.119 20.6535 34.2233 21.4244C36.3277 22.1952 47.3174 26.5692 49.3968 27.3311C51.477 28.0934 51.5568 28.7214 49.4227 29.8337Z" fill="#C6302B"></path><path d="M49.425 27.0685C47.2907 28.1808 36.2349 32.7268 33.8811 33.9543C31.5274 35.1813 30.2198 35.1692 28.3604 34.2803C26.5009 33.3919 14.7356 28.6388 12.6162 27.6262C11.5571 27.1196 11 26.6927 11 26.2893V22.2464C11 22.2464 26.3172 18.9122 28.79 18.0252C31.2626 17.1379 32.1205 17.106 34.2248 17.8768C36.3295 18.6478 48.9123 20.9174 50.9919 21.6793L50.9909 25.6648C50.9912 26.0639 50.5113 26.5022 49.425 27.0685Z" fill="#912626"></path><path d="M49.4236 23.0488C47.2895 24.1611 36.2339 28.707 33.8802 29.934C31.5266 31.1609 30.2191 31.1489 28.3598 30.2605C26.5005 29.3716 14.7354 24.6188 12.6163 23.606C10.4968 22.5934 10.4526 21.8959 12.5342 21.0806C14.616 20.2655 26.3166 15.6753 28.7895 14.788C31.2621 13.9008 32.1199 13.869 34.2242 14.6399C36.3286 15.4108 47.3182 19.7848 49.3977 20.5467C51.4779 21.3084 51.5577 21.9365 49.4236 23.0488Z" fill="#C6302B"></path><path d="M35.8839 19.1167L32.4455 19.4736L31.6758 21.3258L30.4326 19.259L26.4623 18.9022L29.4248 17.8338L28.5359 16.1938L31.3096 17.2786L33.9244 16.4226L33.2177 18.1183L35.8839 19.1167ZM31.4705 28.102L25.0535 25.4406L34.2486 24.0291L31.4705 28.102ZM22.5738 20.1462C25.2881 20.1462 27.4885 20.9991 27.4885 22.0511C27.4885 23.1034 25.2881 23.9562 22.5738 23.9562C19.8595 23.9562 17.6592 23.1032 17.6592 22.0511C17.6592 20.9991 19.8595 20.1462 22.5738 20.1462Z" fill="white"></path><path d="M39.9468 19.6242L45.3888 21.7747L39.9515 23.9231L39.9468 19.624" fill="#621B1C"></path><path d="M33.9253 22.0058L39.9459 19.6243L39.9506 23.9232L39.3603 24.1541L33.9253 22.0058Z" fill="#9A2928"></path></g><rect x="1" y="1" width="60" height="60" rx="2" stroke="#EAE9F2"></rect><defs><clipPath id="clip0_1060_913"><rect width="40" height="34.368" fill="white" transform="translate(11 14)"></rect></clipPath></defs></svg>